<?xml version="1.0" encoding="UTF-8"?>
<svg id="Réteg_3" data-name="Réteg 3" xmlns="http://www.w3.org/2000/svg" viewBox="0 0 1053 1143">
  <defs>
    <style>
      .cls-1 {
        fill: #1a1a1a;
      }
    </style>
  </defs>
  <path class="cls-1" d="M270.49,620.7c0-12,2.7-23.49,8.09-34.48,5.39-10.99,12.71-19.89,21.94-26.7,9.23-6.81,19.04-10.21,29.43-10.21,9.3,0,16.25,2.9,20.83,8.7,4.58,5.8,6.88,13.69,6.88,23.66,0,11.73-2.7,23.16-8.09,34.28-5.39,11.12-12.71,20.19-21.94,27.2-9.24,7.01-18.91,10.52-29.02,10.52-9.58,0-16.65-2.97-21.24-8.9-4.59-5.93-6.88-13.95-6.88-24.07ZM288.49,624.54c0,14.56,4.25,21.84,12.74,21.84,5.39,0,11.09-3.51,17.09-10.52,6-7.01,10.99-15.91,14.97-26.7,3.97-10.79,5.97-21.1,5.97-30.95,0-14.43-4.05-21.64-12.14-21.64-5.66,0-11.53,3.44-17.6,10.32-6.07,6.87-11.09,15.64-15.07,26.29-3.98,10.65-5.97,21.1-5.97,31.35Z"/>
  <path class="cls-1" d="M379.5,650.02h-16.18l21.03-70.79c1.21-4.18.81-7.35-1.21-9.51l-6.67-7.48,32.76-11.93-15.17,50.97c7.55-17.66,15.71-30.74,24.47-39.24,8.76-8.5,17.19-12.74,25.28-12.74,6.74,0,10.99,2.73,12.74,8.19,1.75,5.46,1.28,11.63-1.42,18.51l-19.42,56.83c-1.62,4.85-.54,7.28,3.24,7.28,4.05,0,7.75-1.55,11.13-4.65-5.66,11.46-12.81,17.19-21.44,17.19-4.32,0-7.28-1.59-8.9-4.75-1.62-3.17-1.55-7.65.2-13.45l18.81-57.24c1.48-4.32,1.79-7.89.91-10.72-.88-2.83-2.73-4.25-5.56-4.25-6.34,0-13.35,5.29-21.04,15.88-7.69,10.59-14.29,22.18-19.82,34.79-5.53,12.61-10.11,24.98-13.75,37.11Z"/>
  <path class="cls-1" d="M464.45,622.11c0-19.15,5.59-36.07,16.79-50.76,11.19-14.7,24.2-22.05,39.04-22.05,7.15,0,12.47,1.65,15.98,4.96,3.51,3.31,5.26,7.79,5.26,13.45,0,10.92-5.26,20.53-15.78,28.82-10.52,8.29-24.75,12.51-42.68,12.64-.4,2.83-.61,5.6-.61,8.29,0,7.15,1.38,13.04,4.15,17.7,2.76,4.65,6.64,6.98,11.63,6.98,5.8,0,11.12-2.15,15.98-6.47,4.85-4.31,9.77-10.18,14.76-17.6-3.1,9.71-8.02,18.07-14.76,25.08-6.74,7.01-15.24,10.52-25.48,10.52-7.15,0-12.98-2.77-17.5-8.29-4.52-5.53-6.77-13.28-6.77-23.26ZM483.86,604.11c12.81-1.48,22.99-5.83,30.54-13.04,7.55-7.21,11.33-15.27,11.33-24.17,0-2.7-.64-5.09-1.92-7.18-1.28-2.09-3.41-3.14-6.37-3.14-7.28,0-14.13,4.89-20.53,14.67-6.41,9.78-10.75,20.73-13.05,32.86Z"/>
  <path class="cls-1" d="M555.46,652.65c-4.32,0-7.28-1.55-8.9-4.65-1.62-3.1-1.55-7.62.2-13.55l16.79-55.22c1.21-3.77.81-6.81-1.21-9.1l-7.08-7.89,33.17-11.93-25.08,82.52c-1.35,4.58-.27,6.88,3.24,6.88,3.1,0,6.54-1.42,10.31-4.25-5.8,11.46-12.94,17.19-21.44,17.19ZM576.7,526.45c0-4.18,1.68-7.89,5.06-11.12,3.37-3.24,7.35-4.86,11.93-4.86,2.7,0,4.96.78,6.78,2.33,1.82,1.55,2.73,3.61,2.73,6.17,0,4.05-1.69,7.72-5.06,11.02-3.37,3.31-7.28,4.96-11.73,4.96-2.83,0-5.16-.78-6.98-2.33-1.82-1.55-2.73-3.61-2.73-6.17Z"/>
  <path class="cls-1" d="M663.26,549.3c4.58,0,7.99,1.18,10.21,3.54,2.22,2.36,3.34,4.96,3.34,7.79,0,3.1-1.08,5.87-3.24,8.29-2.16,2.43-4.59,3.64-7.28,3.64-2.43,0-4.79-.81-7.08-2.43-3.37-2.56-5.87-3.84-7.48-3.84-4.18,0-9.51,5.83-15.98,17.5-6.47,11.66-11.9,23.16-16.28,34.48-4.38,11.33-8.13,21.91-11.23,31.76h-16.38l21.24-70.79c1.21-4.05.88-7.08-1.01-9.1l-7.08-7.89,32.97-11.93-16.18,54c14.16-36.67,27.98-55.01,41.46-55.01Z"/>
  <path class="cls-1" d="M737.49,633.04c-.68,2.56-.57,4.42.3,5.56.88,1.15,1.99,1.72,3.34,1.72,3.64,0,6.94-1.62,9.91-4.86-2.29,5.66-5.39,9.95-9.3,12.84-3.91,2.9-7.76,4.35-11.53,4.35-4.59,0-7.72-1.48-9.41-4.45-1.69-2.96-1.65-7.55.1-13.75l6.07-19.62c-13.35,25.89-27.03,38.83-41.06,38.83-12,0-18-7.48-18-22.45,0-12.4,2.86-24.98,8.6-37.72,5.73-12.74,13.31-23.29,22.75-31.65,9.44-8.36,19.08-12.54,28.92-12.54,8.09,0,13.95,3.1,17.6,9.31l15.98-7.89-24.27,82.32ZM686.93,627.98c0,9.31,2.63,13.96,7.89,13.96,4.99,0,10.95-4.42,17.9-13.25,6.94-8.83,13.25-19.38,18.91-31.65l10.31-33.98c-2.02-4.32-5.53-6.47-10.52-6.47-7.15,0-14.19,3.71-21.14,11.12-6.95,7.42-12.57,16.69-16.89,27.81-4.32,11.12-6.47,21.95-6.47,32.46Z"/>
</svg>