<?xml version="1.0" encoding="UTF-8"?>
<svg id="Réteg_3" data-name="Réteg 3" xmlns="http://www.w3.org/2000/svg" viewBox="0 0 1053 1143">
  <defs>
    <style>
      .cls-1 {
        fill: #1a1a1a;
      }
    </style>
  </defs>
  <g>
    <path class="cls-1" d="M325.44,496.17c16.35-2.51,29.76,9.42,31.69,23.58,2.11,15.53-8.41,29.09-23.49,31.43-14.83,2.31-28.84-7.91-31.48-22.42-2.73-14.97,6.81-30.07,23.28-32.6Z"/>
    <path class="cls-1" d="M247.74,457.52c16.35-2.51,29.76,9.42,31.69,23.58,2.11,15.53-8.41,29.09-23.49,31.43-14.83,2.31-28.84-7.91-31.48-22.42-2.73-14.97,6.81-30.07,23.28-32.6Z"/>
    <path class="cls-1" d="M363.69,573.47c16.35-2.51,29.76,9.42,31.69,23.58,2.11,15.53-8.41,29.09-23.49,31.43-14.83,2.31-28.84-7.91-31.48-22.42-2.73-14.97,6.81-30.07,23.28-32.6Z"/>
    <path class="cls-1" d="M170.85,496.17c16.35-2.51,29.76,9.42,31.69,23.58,2.11,15.53-8.41,29.09-23.49,31.43-14.83,2.31-28.84-7.91-31.48-22.42-2.73-14.97,6.81-30.07,23.28-32.6Z"/>
    <path class="cls-1" d="M170.85,650.77c16.35-2.51,29.76,9.42,31.69,23.58,2.11,15.53-8.41,29.09-23.49,31.43-14.83,2.31-28.84-7.91-31.48-22.42-2.73-14.97,6.81-30.07,23.28-32.6Z"/>
    <path class="cls-1" d="M131.79,573.47c16.35-2.51,29.76,9.42,31.69,23.58,2.11,15.53-8.41,29.09-23.49,31.43-14.83,2.31-28.84-7.91-31.48-22.42-2.73-14.97,6.81-30.07,23.28-32.6Z"/>
    <path class="cls-1" d="M325.44,650.77c16.35-2.51,29.76,9.42,31.69,23.58,2.11,15.53-8.41,29.09-23.49,31.43-14.83,2.31-28.84-7.91-31.48-22.42-2.73-14.97,6.81-30.07,23.28-32.6Z"/>
    <path class="cls-1" d="M247.74,689.42c16.35-2.51,29.76,9.42,31.69,23.58,2.11,15.53-8.41,29.09-23.49,31.43-14.83,2.31-28.84-7.91-31.48-22.42-2.73-14.97,6.81-30.07,23.28-32.6Z"/>
    <path class="cls-1" d="M109.82,640.82c10.79-3.94,21.75,2.27,25.07,12.08,3.33,9.83-1.72,21-11.88,24.64-9.7,3.48-20.37-1.2-24.39-10.33-4.42-10.02-.52-22.11,11.2-26.39Z"/>
    <path class="cls-1" d="M187.52,718.12c10.79-3.94,21.75,2.27,25.07,12.08,3.33,9.83-1.72,21-11.88,24.64-9.7,3.48-20.37-1.2-24.39-10.33-4.42-10.02-.52-22.11,11.2-26.39Z"/>
    <path class="cls-1" d="M117.05,718.15c7.84-3.29,15.07.35,17.84,7.09,2.66,6.49,0,14.23-7.22,17.39-6.16,2.7-13.26.23-16.79-5.91-3.52-6.12-1.8-15.22,6.17-18.57Z"/>
    <path class="cls-1" d="M394.29,561.13c-10.79,3.94-21.75-2.27-25.07-12.08-3.33-9.83,1.72-21,11.88-24.64,9.7-3.48,20.37,1.2,24.39,10.33,4.42,10.02.52,22.11-11.2,26.39Z"/>
    <path class="cls-1" d="M316.58,483.83c-10.79,3.94-21.75-2.27-25.07-12.08-3.33-9.83,1.72-21,11.88-24.64,9.7-3.48,20.37,1.2,24.39,10.33,4.42,10.02.52,22.11-11.2,26.39Z"/>
    <path class="cls-1" d="M387.05,483.8c-7.84,3.29-15.07-.35-17.84-7.09-2.66-6.49,0-14.23,7.22-17.39,6.16-2.7,13.26-.23,16.79,5.91,3.52,6.12,1.8,15.22-6.17,18.57Z"/>
  </g>
  <g>
    <path class="cls-1" d="M435.44,629.95c0-13.38,3-26.19,9.02-38.44,6.01-12.25,14.17-22.17,24.47-29.77,10.29-7.59,21.23-11.39,32.81-11.39,10.37,0,18.11,3.24,23.23,9.7,5.11,6.46,7.67,15.26,7.67,26.38,0,13.08-3.01,25.82-9.02,38.22-6.01,12.4-14.17,22.51-24.47,30.33-10.3,7.81-21.08,11.73-32.36,11.73-10.68,0-18.57-3.31-23.68-9.92-5.11-6.61-7.67-15.56-7.67-26.83ZM455.51,634.24c0,16.23,4.74,24.35,14.21,24.35,6.01,0,12.36-3.91,19.05-11.73,6.69-7.81,12.25-17.74,16.69-29.76,4.43-12.03,6.65-23.53,6.65-34.5,0-16.08-4.51-24.13-13.53-24.13-6.31,0-12.85,3.84-19.62,11.5-6.77,7.66-12.37,17.44-16.8,29.31-4.44,11.88-6.65,23.53-6.65,34.95Z"/>
    <path class="cls-1" d="M556.98,662.65h-18.04l23.45-78.92c1.35-4.66.9-8.19-1.35-10.6l-7.44-8.34,36.53-13.3-16.91,56.82c8.42-19.69,17.51-34.27,27.28-43.74,9.77-9.47,19.17-14.21,28.19-14.21,7.52,0,12.25,3.05,14.21,9.13,1.95,6.09,1.43,12.97-1.58,20.63l-21.65,63.36c-1.8,5.41-.6,8.12,3.61,8.12,4.51,0,8.64-1.72,12.4-5.19-6.31,12.78-14.28,19.17-23.9,19.17-4.81,0-8.12-1.77-9.92-5.3-1.8-3.53-1.73-8.53.23-15l20.97-63.81c1.65-4.81,1.99-8.8,1.02-11.95-.98-3.16-3.04-4.73-6.2-4.73-7.07,0-14.88,5.9-23.45,17.7-8.57,11.81-15.94,24.73-22.1,38.79-6.17,14.06-11.27,27.85-15.33,41.38Z"/>
    <path class="cls-1" d="M651.68,631.53c0-21.34,6.24-40.21,18.71-56.6,12.48-16.38,26.98-24.58,43.52-24.58,7.97,0,13.9,1.84,17.81,5.53,3.91,3.69,5.86,8.68,5.86,14.99,0,12.18-5.86,22.89-17.59,32.13-11.73,9.25-27.59,13.94-47.58,14.09-.45,3.16-.68,6.24-.68,9.25,0,7.97,1.54,14.54,4.62,19.73,3.08,5.18,7.4,7.78,12.97,7.78,6.46,0,12.4-2.4,17.81-7.21,5.41-4.81,10.9-11.35,16.46-19.62-3.46,10.82-8.95,20.15-16.46,27.96-7.52,7.81-16.99,11.73-28.41,11.73-7.97,0-14.47-3.08-19.51-9.25-5.04-6.16-7.55-14.81-7.55-25.93ZM673.33,611.46c14.28-1.65,25.63-6.5,34.05-14.54,8.42-8.04,12.63-17.02,12.63-26.94,0-3.01-.72-5.67-2.14-8.01-1.43-2.33-3.8-3.5-7.1-3.5-8.12,0-15.75,5.45-22.89,16.35-7.14,10.9-11.99,23.11-14.54,36.64Z"/>
    <path class="cls-1" d="M753.15,665.58c-4.81,0-8.12-1.73-9.92-5.19-1.8-3.46-1.73-8.49.22-15.11l18.72-61.56c1.35-4.21.9-7.59-1.35-10.15l-7.89-8.79,36.98-13.3-27.96,92c-1.5,5.11-.3,7.67,3.61,7.67,3.46,0,7.29-1.58,11.5-4.74-6.46,12.78-14.43,19.17-23.9,19.17ZM776.83,524.87c0-4.66,1.88-8.79,5.64-12.4,3.76-3.61,8.19-5.41,13.3-5.41,3.01,0,5.53.87,7.55,2.59,2.03,1.73,3.04,4.02,3.04,6.88,0,4.51-1.88,8.61-5.64,12.29-3.76,3.69-8.12,5.53-13.08,5.53-3.16,0-5.75-.87-7.78-2.59-2.03-1.73-3.04-4.02-3.04-6.88Z"/>
    <path class="cls-1" d="M873.34,550.35c5.11,0,8.91,1.32,11.39,3.95,2.48,2.63,3.72,5.53,3.72,8.68,0,3.46-1.21,6.54-3.61,9.25-2.41,2.71-5.11,4.06-8.12,4.06-2.71,0-5.34-.9-7.89-2.71-3.76-2.85-6.54-4.28-8.34-4.28-4.66,0-10.6,6.51-17.81,19.51-7.22,13-13.27,25.82-18.15,38.44-4.89,12.63-9.06,24.43-12.52,35.4h-18.26l23.68-78.92c1.35-4.51.98-7.89-1.13-10.15l-7.89-8.79,36.75-13.3-18.04,60.2c15.78-40.89,31.19-61.33,46.23-61.33Z"/>
    <path class="cls-1" d="M956.09,643.71c-.75,2.86-.64,4.92.34,6.2.98,1.28,2.22,1.92,3.72,1.92,4.06,0,7.74-1.8,11.05-5.41-2.56,6.32-6.01,11.09-10.37,14.32-4.36,3.23-8.65,4.85-12.85,4.85-5.11,0-8.61-1.65-10.49-4.96-1.88-3.3-1.84-8.42.11-15.33l6.76-21.87c-14.88,28.86-30.14,43.29-45.77,43.29-13.38,0-20.07-8.34-20.07-25.03,0-13.83,3.19-27.85,9.58-42.05,6.39-14.21,14.84-25.97,25.37-35.29,10.52-9.32,21.27-13.98,32.24-13.98,9.02,0,15.56,3.46,19.62,10.37l17.81-8.8-27.06,91.78ZM899.72,638.07c0,10.37,2.93,15.56,8.79,15.56,5.56,0,12.21-4.92,19.96-14.77,7.74-9.84,14.77-21.61,21.08-35.29l11.5-37.88c-2.26-4.81-6.17-7.22-11.73-7.22-7.97,0-15.82,4.14-23.56,12.4-7.74,8.27-14.02,18.6-18.83,31.01-4.81,12.4-7.22,24.47-7.22,36.19Z"/>
  </g>
</svg>