<?xml version="1.0" encoding="UTF-8"?>
<svg id="Réteg_2" data-name="Réteg 2" xmlns="http://www.w3.org/2000/svg" viewBox="0 0 1053 1143">
  <defs>
    <style>
      .cls-1 {
        fill: #1a1a1a;
      }
    </style>
  </defs>
  <path class="cls-1" d="M613.53,426.85c21.28-3.27,38.74,12.26,41.24,30.69,2.75,20.21-10.95,37.85-30.57,40.91-19.3,3-37.53-10.29-40.97-29.18-3.55-19.49,8.86-39.13,30.3-42.42Z"/>
  <path class="cls-1" d="M512.4,376.55c21.28-3.27,38.74,12.26,41.24,30.69,2.75,20.21-10.95,37.85-30.57,40.91-19.3,3-37.53-10.29-40.97-29.18-3.55-19.49,8.86-39.13,30.3-42.42Z"/>
  <path class="cls-1" d="M663.3,527.45c21.28-3.27,38.74,12.26,41.24,30.69,2.75,20.21-10.95,37.85-30.57,40.91-19.3,3-37.53-10.29-40.97-29.18-3.55-19.49,8.86-39.13,30.3-42.42Z"/>
  <path class="cls-1" d="M412.33,426.85c21.28-3.27,38.74,12.26,41.24,30.69,2.75,20.21-10.95,37.85-30.57,40.91-19.3,3-37.53-10.29-40.97-29.18-3.55-19.49,8.86-39.13,30.3-42.42Z"/>
  <path class="cls-1" d="M412.33,628.05c21.28-3.27,38.74,12.26,41.24,30.69,2.75,20.21-10.95,37.85-30.57,40.91-19.3,3-37.53-10.29-40.97-29.18-3.55-19.49,8.86-39.13,30.3-42.42Z"/>
  <path class="cls-1" d="M361.5,527.45c21.28-3.27,38.74,12.26,41.24,30.69,2.75,20.21-10.95,37.85-30.57,40.91-19.3,3-37.53-10.29-40.97-29.18-3.55-19.49,8.86-39.13,30.3-42.42Z"/>
  <path class="cls-1" d="M613.53,628.05c21.28-3.27,38.74,12.26,41.24,30.69,2.75,20.21-10.95,37.85-30.57,40.91-19.3,3-37.53-10.29-40.97-29.18-3.55-19.49,8.86-39.13,30.3-42.42Z"/>
  <path class="cls-1" d="M512.4,678.35c21.28-3.27,38.74,12.26,41.24,30.69,2.75,20.21-10.95,37.85-30.57,40.91-19.3,3-37.53-10.29-40.97-29.18-3.55-19.49,8.86-39.13,30.3-42.42Z"/>
  <path class="cls-1" d="M332.9,615.1c14.04-5.13,28.31,2.96,32.63,15.72,4.33,12.79-2.24,27.33-15.46,32.07s-26.51-1.56-31.74-13.45c-5.75-13.05-.68-28.78,14.57-34.35Z"/>
  <path class="cls-1" d="M434.02,715.7c14.04-5.13,28.31,2.96,32.63,15.72,4.33,12.79-2.24,27.33-15.46,32.07-12.62,4.53-26.51-1.56-31.74-13.45-5.75-13.05-.68-28.78,14.57-34.35Z"/>
  <path class="cls-1" d="M342.31,715.74c10.2-4.28,19.62.45,23.22,9.22,3.47,8.44,0,18.52-9.4,22.63-8.01,3.51-17.26.3-21.85-7.69s-2.34-19.81,8.03-24.17Z"/>
  <path class="cls-1" d="M703.12,511.38c-14.04,5.13-28.31-2.96-32.63-15.72-4.33-12.79,2.24-27.33,15.46-32.07,12.62-4.53,26.51,1.56,31.74,13.45,5.75,13.05.68,28.78-14.57,34.35Z"/>
  <path class="cls-1" d="M602,410.78c-14.04,5.13-28.31-2.96-32.63-15.72s2.24-27.33,15.46-32.07c12.62-4.53,26.51,1.56,31.74,13.45,5.75,13.05.68,28.78-14.57,34.35Z"/>
  <path class="cls-1" d="M693.71,410.74c-10.2,4.28-19.62-.45-23.22-9.22s0-18.52,9.4-22.63c8.01-3.51,17.26-.3,21.85,7.69,4.58,7.97,2.34,19.81-8.03,24.17Z"/>
</svg>